<svg xmlns="http://www.w3.org/2000/svg" viewBox="0 0 128 128" role="img" aria-label="Rainbow sticker">
  <path d="M20 93c0-39 19-65 44-65s44 26 44 65" fill="none" stroke="#F4A7A0" stroke-width="18" stroke-linecap="round"/>
  <path d="M29 93c0-33 15-55 35-55s35 22 35 55" fill="none" stroke="#FFE28A" stroke-width="13" stroke-linecap="round"/>
  <path d="M39 93c0-26 11-43 25-43s25 17 25 43" fill="none" stroke="#A9D8C8" stroke-width="11" stroke-linecap="round"/>
  <path d="M49 93c0-19 7-31 15-31s15 12 15 31" fill="none" stroke="#AFCDF3" stroke-width="9" stroke-linecap="round"/>
  <path d="M18 87c-9 0-14 5-14 12s6 12 15 12h26c8 0 14-5 14-12s-6-12-14-12c-4-8-19-8-27 0ZM110 87c9 0 14 5 14 12s-6 12-15 12H83c-8 0-14-5-14-12s6-12 14-12c4-8 19-8 27 0Z" fill="#FFFDF5" stroke="#554F5B" stroke-width="2" stroke-linejoin="round"/>
</svg>
