<svg xmlns="http://www.w3.org/2000/svg" viewBox="0 0 128 128" role="img" aria-label="Thunderstorm sticker">
  <path d="M30 72C18 72 9 64 9 53s9-19 21-19c4-13 16-22 31-22 19 0 33 13 35 29 12 0 21 7 21 16s-9 15-21 15H30Z" fill="#C9B8E8" stroke="#554F5B" stroke-width="2" stroke-linejoin="round"/>
  <path d="m60 67-14 26h16l-6 24 27-35H66l9-15H60Z" fill="#FFE28A" stroke="#554F5B" stroke-width="2" stroke-linejoin="round"/>
  <path d="m29 84-6 12M98 84l-6 12M34 101l-5 10M92 101l-5 10" fill="none" stroke="#78B5E8" stroke-width="4" stroke-linecap="round"/>
</svg>
